<svg width="61" height="60" viewBox="0 0 61 60" fill="none" xmlns="http://www.w3.org/2000/svg">
<path d="M15.0899 26.95H6.31486L4.64086 31H0.158855L8.58286 12.1H12.9029L21.3539 31H16.7639L15.0899 26.95ZM13.7129 23.629L10.7159 16.393L7.71886 23.629H13.7129ZM29.5247 31.324C28.0307 31.324 26.5817 31.126 25.1777 30.73C23.7917 30.316 22.6757 29.785 21.8297 29.137L23.3147 25.843C24.1247 26.437 25.0877 26.914 26.2037 27.274C27.3197 27.634 28.4357 27.814 29.5517 27.814C30.7937 27.814 31.7117 27.634 32.3057 27.274C32.8997 26.896 33.1967 26.401 33.1967 25.789C33.1967 25.339 33.0167 24.97 32.6567 24.682C32.3147 24.376 31.8647 24.133 31.3067 23.953C30.7667 23.773 30.0287 23.575 29.0927 23.359C27.6527 23.017 26.4737 22.675 25.5557 22.333C24.6377 21.991 23.8457 21.442 23.1797 20.686C22.5317 19.93 22.2077 18.922 22.2077 17.662C22.2077 16.564 22.5047 15.574 23.0987 14.692C23.6927 13.792 24.5837 13.081 25.7717 12.559C26.9777 12.037 28.4447 11.776 30.1727 11.776C31.3787 11.776 32.5577 11.92 33.7097 12.208C34.8617 12.496 35.8697 12.91 36.7337 13.45L35.3837 16.771C33.6377 15.781 31.8917 15.286 30.1457 15.286C28.9217 15.286 28.0127 15.484 27.4187 15.88C26.8427 16.276 26.5547 16.798 26.5547 17.446C26.5547 18.094 26.8877 18.58 27.5537 18.904C28.2377 19.21 29.2727 19.516 30.6587 19.822C32.0987 20.164 33.2777 20.506 34.1957 20.848C35.1137 21.19 35.8967 21.73 36.5447 22.468C37.2107 23.206 37.5437 24.205 37.5437 25.465C37.5437 26.545 37.2377 27.535 36.6257 28.435C36.0317 29.317 35.1317 30.019 33.9257 30.541C32.7197 31.063 31.2527 31.324 29.5247 31.324ZM40.5325 12.1H49.1185C51.1705 12.1 52.9795 12.496 54.5455 13.288C56.1295 14.062 57.3535 15.16 58.2175 16.582C59.0995 18.004 59.5405 19.66 59.5405 21.55C59.5405 23.44 59.0995 25.096 58.2175 26.518C57.3535 27.94 56.1295 29.047 54.5455 29.839C52.9795 30.613 51.1705 31 49.1185 31H40.5325V12.1ZM48.9025 27.409C50.7925 27.409 52.2955 26.887 53.4115 25.843C54.5455 24.781 55.1125 23.35 55.1125 21.55C55.1125 19.75 54.5455 18.328 53.4115 17.284C52.2955 16.222 50.7925 15.691 48.9025 15.691H44.9065V27.409H48.9025Z" fill="#FFBF86"/>
<path d="M5.3802 44.084C4.99287 44.084 4.6172 44.0327 4.2532 43.93C3.89387 43.8227 3.60453 43.685 3.3852 43.517L3.7702 42.663C3.9802 42.817 4.22987 42.9407 4.5192 43.034C4.80853 43.1273 5.09787 43.174 5.3872 43.174C5.7092 43.174 5.9472 43.1273 6.1012 43.034C6.2552 42.936 6.3322 42.8077 6.3322 42.649C6.3322 42.5323 6.28553 42.4367 6.1922 42.362C6.10353 42.2827 5.98687 42.2197 5.8422 42.173C5.7022 42.1263 5.51087 42.075 5.2682 42.019C4.89487 41.9303 4.5892 41.8417 4.3512 41.753C4.1132 41.6643 3.90787 41.522 3.7352 41.326C3.5672 41.13 3.4832 40.8687 3.4832 40.542C3.4832 40.2573 3.5602 40.0007 3.7142 39.772C3.8682 39.5387 4.0992 39.3543 4.4072 39.219C4.71987 39.0837 5.1002 39.016 5.5482 39.016C5.86087 39.016 6.16653 39.0533 6.4652 39.128C6.76387 39.2027 7.0252 39.31 7.2492 39.45L6.8992 40.311C6.44653 40.0543 5.99387 39.926 5.5412 39.926C5.22387 39.926 4.9882 39.9773 4.8342 40.08C4.68487 40.1827 4.6102 40.318 4.6102 40.486C4.6102 40.654 4.69653 40.78 4.8692 40.864C5.04653 40.9433 5.31487 41.0227 5.6742 41.102C6.04753 41.1907 6.3532 41.2793 6.5912 41.368C6.8292 41.4567 7.0322 41.5967 7.2002 41.788C7.37287 41.9793 7.4592 42.2383 7.4592 42.565C7.4592 42.845 7.37987 43.1017 7.2212 43.335C7.0672 43.5637 6.83387 43.7457 6.5212 43.881C6.20853 44.0163 5.8282 44.084 5.3802 44.084ZM12.0141 44.084C11.5147 44.084 11.0621 43.9767 10.6561 43.762C10.2547 43.5427 9.9374 43.2417 9.70407 42.859C9.4754 42.4717 9.36107 42.0353 9.36107 41.55C9.36107 41.0647 9.4754 40.6307 9.70407 40.248C9.9374 39.8607 10.2547 39.5597 10.6561 39.345C11.0621 39.1257 11.5171 39.016 12.0211 39.016C12.4457 39.016 12.8284 39.0907 13.1691 39.24C13.5144 39.3893 13.8037 39.604 14.0371 39.884L13.3091 40.556C12.9777 40.1733 12.5671 39.982 12.0771 39.982C11.7737 39.982 11.5031 40.0497 11.2651 40.185C11.0271 40.3157 10.8404 40.5 10.7051 40.738C10.5744 40.976 10.5091 41.2467 10.5091 41.55C10.5091 41.8533 10.5744 42.124 10.7051 42.362C10.8404 42.6 11.0271 42.7867 11.2651 42.922C11.5031 43.0527 11.7737 43.118 12.0771 43.118C12.5671 43.118 12.9777 42.9243 13.3091 42.537L14.0371 43.209C13.8037 43.4937 13.5144 43.7107 13.1691 43.86C12.8237 44.0093 12.4387 44.084 12.0141 44.084ZM19.3599 44L18.4149 42.635H18.3589H17.3719V44H16.2379V39.1H18.3589C18.7929 39.1 19.1685 39.1723 19.4859 39.317C19.8079 39.4617 20.0552 39.667 20.2279 39.933C20.4005 40.199 20.4869 40.514 20.4869 40.878C20.4869 41.242 20.3982 41.557 20.2209 41.823C20.0482 42.0843 19.8009 42.285 19.4789 42.425L20.5779 44H19.3599ZM19.3389 40.878C19.3389 40.6027 19.2502 40.3927 19.0729 40.248C18.8955 40.0987 18.6365 40.024 18.2959 40.024H17.3719V41.732H18.2959C18.6365 41.732 18.8955 41.6573 19.0729 41.508C19.2502 41.3587 19.3389 41.1487 19.3389 40.878ZM26.6143 43.09V44H22.8203V39.1H26.5233V40.01H23.9473V41.074H26.2223V41.956H23.9473V43.09H26.6143ZM32.7456 43.09V44H28.9516V39.1H32.6546V40.01H30.0786V41.074H32.3536V41.956H30.0786V43.09H32.7456ZM39.5769 39.1V44H38.6459L36.2029 41.025V44H35.0829V39.1H36.0209L38.4569 42.075V39.1H39.5769ZM42.1712 39.1H43.3052V44H42.1712V39.1ZM50.3971 39.1V44H49.4661L47.0231 41.025V44H45.9031V39.1H46.8411L49.2771 42.075V39.1H50.3971ZM56.3024 41.473H57.3384V43.461C57.0724 43.6617 56.7644 43.8157 56.4144 43.923C56.0644 44.0303 55.7121 44.084 55.3574 44.084C54.8487 44.084 54.3914 43.9767 53.9854 43.762C53.5794 43.5427 53.2597 43.2417 53.0264 42.859C52.7977 42.4717 52.6834 42.0353 52.6834 41.55C52.6834 41.0647 52.7977 40.6307 53.0264 40.248C53.2597 39.8607 53.5817 39.5597 53.9924 39.345C54.4031 39.1257 54.8651 39.016 55.3784 39.016C55.8077 39.016 56.1974 39.0883 56.5474 39.233C56.8974 39.3777 57.1914 39.5877 57.4294 39.863L56.7014 40.535C56.3514 40.1663 55.9291 39.982 55.4344 39.982C55.1217 39.982 54.8441 40.0473 54.6014 40.178C54.3587 40.3087 54.1697 40.493 54.0344 40.731C53.8991 40.969 53.8314 41.242 53.8314 41.55C53.8314 41.8533 53.8991 42.124 54.0344 42.362C54.1697 42.6 54.3564 42.7867 54.5944 42.922C54.8371 43.0527 55.1124 43.118 55.4204 43.118C55.7471 43.118 56.0411 43.048 56.3024 42.908V41.473Z" fill="#CDD740"/>
</svg>
